<?xml version="1.0" standalone="no"?>
<!DOCTYPE svg PUBLIC "-//W3C//DTD SVG 20010904//EN"
 "http://www.w3.org/TR/2001/REC-SVG-20010904/DTD/svg10.dtd">
<svg version="1.0" xmlns="http://www.w3.org/2000/svg" viewBox="0 0 4168 1668"
 preserveAspectRatio="xMidYMid meet">

<g transform="translate(0.000000,1668.000000) scale(0.100000,-0.100000)"
fill="#000000" stroke="none">
<path d="M5023 13570 c-815 -66 -1410 -690 -1573 -1650 -29 -171 -40 -301 -47
-542 l-6 -218 -376 -2 -376 -3 -3 -407 -2 -408 380 0 380 0 0 -2395 0 -2395
530 0 530 0 0 2395 0 2395 750 0 750 0 -2 408 -3 407 -747 3 -748 2 0 174 c0
433 71 740 224 969 123 186 275 296 486 353 77 21 296 29 403 15 199 -27 414
-97 556 -183 34 -21 66 -38 70 -38 3 0 64 174 135 387 148 443 146 387 13 454
-400 203 -916 311 -1324 279z"/>
<path d="M30094 13570 c-1076 -62 -1764 -677 -1925 -1723 -16 -99 -22 -202
-26 -409 l-6 -278 -378 0 -379 0 0 -410 0 -410 380 0 380 0 0 -2395 0 -2395
525 0 525 0 0 2395 0 2395 545 0 545 0 0 410 0 410 -546 0 -547 0 7 133 c26
505 140 850 359 1084 187 200 426 293 752 293 346 0 582 -89 766 -287 162
-176 255 -415 288 -742 8 -69 11 -925 11 -2605 0 -1656 3 -2530 10 -2586 49
-396 252 -704 576 -870 189 -97 368 -134 649 -135 251 0 463 31 785 116 143
38 388 117 394 128 5 7 -140 871 -147 877 -1 2 -33 -8 -70 -21 -85 -31 -275
-79 -392 -100 -125 -21 -336 -30 -409 -16 -128 24 -235 99 -276 192 -58 135
-54 -46 -60 2729 -7 2807 -2 2619 -69 2881 -74 294 -192 520 -389 744 -268
307 -679 502 -1196 570 -112 14 -455 37 -521 33 -16 0 -89 -4 -161 -8z"/>
<path d="M18380 12110 l0 -930 -382 -2 -383 -3 0 -410 0 -410 383 -3 382 -2 0
-1838 c0 -1219 4 -1883 11 -1972 12 -158 52 -324 102 -434 97 -210 263 -385
468 -495 95 -51 312 -123 444 -147 138 -26 490 -26 655 -1 246 38 546 124 806
233 215 89 256 111 250 132 -3 9 -56 195 -117 412 -62 217 -114 397 -115 399
-2 2 -41 -14 -86 -36 -267 -130 -540 -193 -778 -180 -309 16 -511 183 -564
466 -14 74 -16 272 -16 1772 l0 1689 625 0 625 0 0 415 0 415 -625 0 -625 0 0
930 0 930 -530 0 -530 0 0 -930z"/>
<path d="M8510 11260 c-682 -45 -1312 -266 -1962 -687 -54 -34 -98 -66 -98
-69 0 -6 368 -714 376 -722 1 -2 49 25 106 61 373 234 749 412 1028 486 516
137 1093 108 1460 -73 108 -54 148 -79 243 -155 223 -180 372 -480 406 -815
16 -159 15 -580 -2 -573 -117 45 -417 124 -592 156 -709 130 -1396 114 -1925
-46 -741 -223 -1251 -700 -1380 -1292 -119 -544 41 -1095 434 -1500 305 -313
668 -495 1136 -568 161 -25 548 -25 710 0 496 77 965 269 1337 548 95 72 339
305 400 382 l30 38 10 -198 c9 -173 14 -206 36 -265 68 -179 217 -339 374
-403 150 -61 364 -77 593 -46 85 12 167 24 183 27 l27 6 -2 411 -3 412 -30 3
c-97 10 -187 53 -224 108 -58 84 -55 9 -61 1484 -5 993 -10 1375 -19 1430 -72
444 -189 741 -405 1028 -78 103 -261 287 -361 363 -332 254 -763 412 -1240
458 -161 15 -442 21 -585 11z m456 -2990 c369 -29 706 -98 1012 -208 l102 -36
0 -351 c0 -389 -3 -411 -64 -534 -158 -313 -397 -537 -756 -709 -325 -156
-574 -209 -943 -199 -168 4 -220 9 -308 30 -481 114 -820 465 -868 900 -26
234 40 466 183 637 208 251 622 428 1091 469 144 12 402 13 551 1z"/>
<path d="M14530 11260 c-448 -29 -884 -150 -1212 -336 -596 -336 -1019 -822
-1263 -1449 -259 -667 -268 -1471 -25 -2135 151 -411 364 -750 665 -1059 447
-459 987 -726 1650 -817 182 -25 646 -26 825 -1 362 50 637 134 940 288 386
195 721 491 942 829 71 109 166 285 158 293 -3 2 -228 72 -501 155 -273 84
-503 154 -511 157 -10 4 -27 -20 -61 -87 -113 -227 -330 -421 -642 -573 -219
-107 -402 -157 -640 -175 -509 -39 -973 142 -1340 521 -157 162 -249 292 -353
497 -161 316 -226 602 -226 992 0 391 60 674 208 975 219 444 575 771 1010
924 276 98 637 117 952 51 334 -70 658 -263 859 -513 57 -71 158 -221 168
-250 2 -7 1011 306 1025 318 12 11 -146 277 -239 402 -85 115 -280 318 -394
410 -392 317 -857 507 -1385 567 -172 19 -449 27 -610 16z"/>
<path d="M23955 11264 c-780 -42 -1446 -350 -1964 -909 -678 -731 -922 -1886
-614 -2904 102 -337 289 -696 503 -966 86 -108 284 -310 400 -407 288 -243
701 -452 1079 -548 437 -110 964 -119 1414 -24 525 111 1011 375 1392 758 467
469 748 1070 826 1766 17 152 14 508 -5 670 -59 487 -216 928 -465 1302 -119
178 -201 278 -351 428 -461 463 -1030 740 -1671 814 -131 15 -426 26 -544 20z
m355 -925 c213 -26 382 -78 569 -175 528 -272 903 -787 1011 -1387 44 -243 49
-516 14 -757 -47 -330 -170 -633 -374 -923 -84 -120 -317 -352 -440 -440 -110
-78 -340 -195 -454 -232 -319 -102 -713 -105 -1018 -9 -579 183 -1066 724
-1227 1362 -50 199 -65 331 -65 567 1 233 15 364 63 561 175 712 749 1292
1399 1413 59 11 123 22 142 24 79 8 301 6 380 -4z"/>
<path d="M33437 11143 c8 -21 541 -1288 1184 -2815 643 -1527 1169 -2784 1169
-2793 0 -9 -52 -147 -115 -306 -313 -788 -459 -1045 -645 -1139 -53 -27 -82
-34 -169 -42 -58 -5 -137 -6 -176 -3 -67 6 -311 40 -367 51 l-28 6 0 -465 0
-464 118 -27 c165 -38 249 -44 488 -35 266 10 385 30 566 95 354 128 655 410
838 789 33 68 2413 6302 2738 7173 3 10 -101 12 -513 10 l-518 -3 -821 -2282
c-451 -1256 -823 -2279 -827 -2275 -4 4 -417 1031 -917 2282 l-910 2275 -556
3 -555 2 16 -37z"/>
</g>
</svg>
